<svg width="18" height="13" viewBox="0 0 18 13" fill="none" xmlns="http://www.w3.org/2000/svg">
<path fill-rule="evenodd" clip-rule="evenodd" d="M11.3273 0.260067C10.9187 0.631574 10.8886 1.26402 11.2601 1.67268L15.6485 6.50001L11.2601 11.3273C10.8886 11.736 10.9187 12.3684 11.3273 12.7399C11.736 13.1115 12.3684 13.0813 12.7399 12.6727L17.7399 7.17268C18.0867 6.79126 18.0867 6.20876 17.7399 5.82733L12.7399 0.327335C12.3684 -0.081323 11.736 -0.11144 11.3273 0.260067Z" fill="#121212"/>
<path fill-rule="evenodd" clip-rule="evenodd" d="M0.327334 0.260067C-0.0813234 0.631574 -0.11144 1.26402 0.260067 1.67268L4.64855 6.50001L0.260067 11.3273C-0.111439 11.736 -0.0813229 12.3684 0.327335 12.7399C0.735992 13.1115 1.36844 13.0813 1.73995 12.6727L6.73995 7.17268C7.08669 6.79126 7.08669 6.20876 6.73995 5.82733L1.73995 0.327334C1.36844 -0.0813234 0.735992 -0.11144 0.327334 0.260067Z" fill="#121212"/>
</svg>
