<svg width="25" height="25" viewBox="0 0 25 25" fill="none" xmlns="http://www.w3.org/2000/svg">
<path d="M17.9091 7C19.2727 7.15152 22 7.72727 22 10.6364C22 13.5455 22 17 22 18.3636C22 19.5758 21.1818 22 17.9091 22C14.6364 22 11.3939 22 10.1818 22C8.9697 22 7 20.8182 7 17.9091" stroke="#F35935" stroke-width="2.2"/>
<path d="M6 3.09961H14.4199C15.0186 3.17368 15.921 3.44284 16.6523 3.99219C17.3617 4.52514 17.9004 5.30284 17.9004 6.5V15C17.9004 15.4622 17.7339 16.2042 17.2451 16.8076C16.7941 17.3644 15.993 17.9004 14.5 17.9004H6C5.50937 17.9004 4.74875 17.744 4.14258 17.3076C3.59249 16.9116 3.09961 16.2415 3.09961 15V6.57812C3.17542 5.9578 3.43012 5.03946 3.92578 4.30078C4.41294 3.57488 5.06578 3.09961 6 3.09961Z" fill="#F35935" stroke="#F35935" stroke-width="2.2"/>
<path fill-rule="evenodd" clip-rule="evenodd" d="M14.7398 7.28285C15.0869 7.65981 15.0867 8.27078 14.7394 8.6475L10.0649 13.7176C9.74069 14.0692 9.22337 14.0957 8.87007 13.7789L6.32279 11.4946C5.94426 11.1551 5.89095 10.5469 6.20372 10.1361C6.51649 9.72525 7.0769 9.66739 7.45543 10.0068L9.37962 11.7324L13.4824 7.28241C13.8298 6.90569 14.3927 6.90589 14.7398 7.28285Z" fill="white"/>
</svg>
